<svg width="941" height="842" viewBox="0 0 941 842" fill="none" xmlns="http://www.w3.org/2000/svg">
<path d="M601.08 528.6C604.16 526.67 607.19 524.68 610.15 522.6C611.65 521.6 613.06 520.53 614.53 519.41C660.67 484.79 689.24 429.73 689.24 362.41C689.24 305.41 666.46 263.86 635.47 235.41C622.556 223.938 607.955 214.518 592.18 207.48C585.683 204.527 579.033 201.92 572.26 199.67L597.05 171.97L598.98 169.81L599.3 169.46L617.3 149.04C617.541 148.77 617.762 148.483 617.96 148.18C618.571 147.195 618.909 146.066 618.94 144.907C618.972 143.749 618.695 142.603 618.139 141.586C617.583 140.569 616.767 139.718 615.775 139.12C614.782 138.522 613.649 138.197 612.49 138.18H560.13C559.198 138.182 558.278 138.387 557.434 138.781C556.589 139.174 555.84 139.748 555.24 140.46L532.02 167.72L531.48 168.36L515.32 187.16C492.482 184.55 469.507 183.311 446.52 183.45H296.42C295.158 183.45 293.909 183.699 292.743 184.183C291.578 184.667 290.519 185.376 289.628 186.27C288.737 187.163 288.032 188.224 287.551 189.391C287.071 190.558 286.826 191.808 286.83 193.07V321.19C286.838 323.726 287.847 326.156 289.637 327.952C291.427 329.748 293.854 330.764 296.39 330.78H368.59C371.131 330.772 373.566 329.759 375.363 327.963C377.159 326.166 378.172 323.731 378.18 321.19V248.68C378.18 235.52 378.99 227.48 380.69 222.3C382.1 217.92 384.17 215.59 386.96 213.89C393.73 208.89 409.96 205.19 440.44 205.19C459.113 205.041 477.766 206.466 496.2 209.45L493.52 212.56L477.59 231.14L403.9 316.98L396.58 325.5C391.17 331.58 382.36 342.06 382.36 342.06V341.69C380.113 344.267 378.866 347.564 378.844 350.983C378.822 354.402 380.027 357.715 382.24 360.32L382.36 360.49V360.32C382.36 360.32 387.89 366.86 393.93 374.09L397.33 378.09L499.72 499.23L513.8 515.9L526.94 531.42C504.64 539.57 478.86 543.98 449.72 543.98C409.48 543.98 387.54 535.77 380.2 509.16C378.2 502.22 377.32 494.02 377.32 484.37V377.61C377.32 375.061 376.31 372.616 374.51 370.811C372.711 369.006 370.269 367.988 367.72 367.98H296.82C296.51 367.98 296.16 367.98 295.82 368.04L294.96 368.15C293.087 368.528 291.368 369.452 290.021 370.807C288.673 372.162 287.758 373.885 287.39 375.76C287.39 376.04 287.3 376.33 287.27 376.62C287.24 376.91 287.21 377.25 287.21 377.62V500.46C287.211 501.691 287.455 502.911 287.928 504.047C288.401 505.184 289.093 506.217 289.965 507.086C290.837 507.956 291.872 508.645 293.011 509.114C294.149 509.583 295.369 509.823 296.6 509.82H319.72C320.96 509.82 322.25 509.82 323.46 509.82C324.737 509.9 326.019 509.863 327.29 509.71C328.202 509.461 329.173 509.542 330.03 509.94C330.525 510.37 330.909 510.911 331.15 511.52C332.174 514.067 332.847 516.742 333.15 519.47C334.88 531.11 335.34 543.03 336.66 554.69C337.13 558.75 337.53 562.81 337.85 566.9C341.45 613.21 334.85 660.33 304.18 697.53C301.314 701.105 298.09 704.379 294.56 707.3C288.783 712.829 282.675 718.002 276.27 722.79V755.3C276.264 756.753 276.63 758.182 277.332 759.454C278.034 760.725 279.049 761.796 280.282 762.564C281.514 763.333 282.923 763.773 284.373 763.844C285.824 763.915 287.269 763.615 288.57 762.97C361.03 727.11 377.93 629.89 380.96 566.9H415.96C464.34 566.9 506.76 562.29 543.96 551.41L582.15 596.57C582.77 597.29 583.537 597.868 584.4 598.264C585.262 598.661 586.2 598.868 587.15 598.87H648.78C650.04 598.875 651.274 598.514 652.334 597.832C653.393 597.15 654.232 596.176 654.75 595.027C655.267 593.878 655.44 592.604 655.249 591.359C655.057 590.114 654.509 588.95 653.67 588.01L601.08 528.6ZM578.45 502.98L566.29 489.21L544.95 465.05L444.39 351.17C443.325 349.971 442.737 348.424 442.737 346.82C442.737 345.217 443.325 343.669 444.39 342.47L525.08 252.28L547.08 227.68L548.81 225.75C550.28 226.56 551.75 227.39 553.19 228.23C557.82 230.91 562.29 233.76 566.46 236.75C607.33 266.07 626.54 312.01 626.54 370.67C626.54 418.59 614.16 459.94 589.54 490.59C586.088 494.932 582.385 499.069 578.45 502.98Z" fill="white"/>
<path d="M125.37 545.04V683.75C125.37 729.663 131.703 762.713 144.37 782.9C157.037 803.087 179.153 815.78 210.72 820.98C220.787 822.247 225.827 825.423 225.84 830.51C225.84 837.843 215.567 841.51 195.02 841.51H164.21C130.29 841.51 104.523 829.397 86.91 805.17C69.2967 780.943 60.49 745.403 60.49 698.55V557.55C60.49 524.377 56.8233 499.01 49.49 481.45C42.1567 463.89 28.4233 447.313 8.29001 431.72C2.75668 427.487 -0.00665463 423.747 1.20337e-05 420.5C1.20337e-05 417.573 2.76334 413.993 8.29001 409.76C28.45 394.153 42.19 377.56 49.51 359.98C56.83 342.4 60.4967 317.197 60.51 284.37V142.98C60.51 96.1533 69.3167 60.6233 86.93 36.39C104.543 12.1567 130.303 0.0199805 164.21 -0.0200195H195.04C215.9 -0.0200195 226.173 3.64665 225.86 10.98C225.533 16.7066 219.533 20.5266 207.86 22.44C175.947 28.3 154.233 40.7533 142.72 59.8C131.207 78.8466 125.433 111.653 125.4 158.22V296.44C125.4 346.913 112.4 382.73 86.4 403.89L76.65 411.71C71.77 415.617 69.33 418.547 69.33 420.5C69.33 422.78 71.77 425.87 76.65 429.77L86.4 437.59C112.38 458.43 125.37 494.247 125.37 545.04Z" fill="white"/>
<path d="M853.72 437.59L863.48 429.77C868.353 425.87 870.79 422.78 870.79 420.5C870.79 418.5 868.35 415.62 863.48 411.71L853.72 403.89C827.72 382.73 814.72 346.913 814.72 296.44V158.22C814.72 111.66 808.95 78.8533 797.41 59.8C785.87 40.7466 764.133 28.2933 732.2 22.44C720.5 20.5333 714.483 16.7133 714.15 10.98C713.863 3.64665 724.14 -0.0200195 744.98 -0.0200195H775.8C809.747 -0.0200195 835.517 12.1 853.11 36.34C870.703 60.58 879.507 96.1266 879.52 142.98V284.39C879.52 317.25 883.187 342.457 890.52 360.01C897.853 377.563 911.587 394.147 931.72 409.76C937.247 413.993 940.01 417.573 940.01 420.5C940.01 423.753 937.247 427.493 931.72 431.72C911.56 447.333 897.82 463.917 890.5 481.47C883.18 499.023 879.513 524.39 879.5 557.57V698.57C879.5 745.397 870.697 780.927 853.09 805.16C835.483 829.393 809.72 841.5 775.8 841.48H744.98C724.433 841.48 714.157 837.813 714.15 830.48C714.15 825.4 719.193 822.223 729.28 820.95C760.82 815.737 782.933 803.04 795.62 782.86C808.307 762.68 814.64 729.63 814.62 683.71V545.04C814.633 494.253 827.667 458.437 853.72 437.59Z" fill="white"/>
</svg>
